<?xml version="1.0" encoding="UTF-8"?>
<svg width="40px" height="32px" viewBox="0 0 40 32" version="1.1" xmlns="http://www.w3.org/2000/svg" xmlns:xlink="http://www.w3.org/1999/xlink">
    <!-- Generator: Sketch 50.2 (55047) - http://www.bohemiancoding.com/sketch -->
    <title>iconmonstr-medium-1</title>
    <desc>Created with Sketch.</desc>
    <defs></defs>
    <g id="Page-1" stroke="none" stroke-width="1" fill="none" fill-rule="evenodd">
        <g id="iconmonstr-medium-1" fill="#000000">
            <path d="M4.23833333,5.21156773 L0.505,0.67684879 L0.505,-4.4408921e-16 L12.1016667,-4.4408921e-16 L21.065,19.8100037 L28.945,3.01769957e-16 L40,-4.4408921e-16 L40,0.67684879 L36.8066667,3.7621372 C36.5316667,3.97375741 36.395,4.3214192 36.4516667,4.66572193 L36.4516667,27.3359576 C36.395,27.6785808 36.5316667,28.0262426 36.8066667,28.2378628 L39.925,31.3231512 L39.925,32 L24.2383333,32 L24.2383333,31.3231512 L27.47,28.1622842 C27.7866667,27.8431743 27.7866667,27.7491209 27.7866667,27.2603789 L27.7866667,8.93675537 L18.805,31.9261009 L17.5916667,31.9261009 L7.13333333,8.93675537 L7.13333333,24.3447226 C7.04666667,24.9913399 7.26,25.6446754 7.71166667,26.1115835 L11.9133333,31.2475726 L11.9133333,31.9261009 L-6.21724894e-15,31.9261009 L-6.21724894e-15,31.2475726 L4.20166667,26.1115835 C4.65166667,25.6429959 4.85166667,24.9863014 4.74333333,24.3447226 L4.74333333,6.52831575 C4.79333333,6.03285572 4.605,5.54411379 4.23833333,5.21156773 Z" id="Shape"></path>
        </g>
    </g>
</svg>